<svg width="593" height="169" viewBox="0 0 593 169" fill="none" xmlns="http://www.w3.org/2000/svg">
<g clip-path="url(#clip0)">
<path d="M293.9 82.6C291.9 79.7 289.2 77.6 285.8 76.3C282.5 74.9 279 74.2 275.3 74.2C273.1 74.2 270.95 74.45 268.85 74.95C266.85 75.45 265 76.25 263.3 77.35C261.7 78.45 260.4 79.9 259.4 81.7C258.4 83.4 257.9 85.45 257.9 87.85C257.9 91.45 259.15 94.2 261.65 96.1C264.15 98 267.25 99.65 270.95 101.05C274.65 102.45 278.7 103.8 283.1 105.1C287.5 106.4 291.55 108.2 295.25 110.5C298.95 112.8 302.05 115.85 304.55 119.65C307.05 123.45 308.3 128.5 308.3 134.8C308.3 140.5 307.25 145.5 305.15 149.8C303.05 154 300.2 157.5 296.6 160.3C293.1 163.1 289 165.2 284.3 166.6C279.6 168 274.65 168.7 269.45 168.7C262.85 168.7 256.5 167.6 250.4 165.4C244.3 163.2 239.05 159.5 234.65 154.3L248.9 140.5C251.2 144 254.2 146.75 257.9 148.75C261.7 150.65 265.7 151.6 269.9 151.6C272.1 151.6 274.3 151.3 276.5 150.7C278.7 150.1 280.7 149.2 282.5 148C284.3 146.8 285.75 145.3 286.85 143.5C287.95 141.6 288.5 139.45 288.5 137.05C288.5 133.15 287.25 130.15 284.75 128.05C282.25 125.95 279.15 124.2 275.45 122.8C271.75 121.3 267.7 119.9 263.3 118.6C258.9 117.3 254.85 115.55 251.15 113.35C247.45 111.05 244.35 108.05 241.85 104.35C239.35 100.55 238.1 95.5 238.1 89.2C238.1 83.7 239.2 78.95 241.4 74.95C243.7 70.95 246.65 67.65 250.25 65.05C253.95 62.35 258.15 60.35 262.85 59.05C267.55 57.75 272.35 57.1 277.25 57.1C282.85 57.1 288.25 57.95 293.45 59.65C298.75 61.35 303.5 64.15 307.7 68.05L293.9 82.6ZM316.583 94H336.083L351.683 144.4H351.983L366.533 94H386.033L401.633 144.4H401.933L416.933 94H435.083L410.633 166H392.783L375.683 116.8H375.383L360.233 166H341.633L316.583 94ZM490.718 156.1H490.268C487.668 160.2 484.368 163.2 480.368 165.1C476.368 166.9 471.968 167.8 467.168 167.8C463.868 167.8 460.618 167.35 457.418 166.45C454.318 165.55 451.518 164.2 449.018 162.4C446.618 160.6 444.668 158.35 443.168 155.65C441.668 152.95 440.918 149.8 440.918 146.2C440.918 142.3 441.618 139 443.018 136.3C444.418 133.5 446.268 131.2 448.568 129.4C450.968 127.5 453.718 126 456.818 124.9C459.918 123.8 463.118 123 466.418 122.5C469.818 121.9 473.218 121.55 476.618 121.45C480.018 121.25 483.218 121.15 486.218 121.15H490.718V119.2C490.718 114.7 489.168 111.35 486.068 109.15C482.968 106.85 479.018 105.7 474.218 105.7C470.418 105.7 466.868 106.4 463.568 107.8C460.268 109.1 457.418 110.9 455.018 113.2L445.568 103.75C449.568 99.65 454.218 96.7 459.518 94.9C464.918 93.1 470.468 92.2 476.168 92.2C481.268 92.2 485.568 92.8 489.068 94C492.568 95.1 495.468 96.55 497.768 98.35C500.068 100.15 501.818 102.25 503.018 104.65C504.318 106.95 505.218 109.3 505.718 111.7C506.318 114.1 506.668 116.45 506.768 118.75C506.868 120.95 506.918 122.9 506.918 124.6V166H490.718V156.1ZM489.668 133.75H485.918C483.418 133.75 480.618 133.85 477.518 134.05C474.418 134.25 471.468 134.75 468.668 135.55C465.968 136.25 463.668 137.35 461.768 138.85C459.868 140.25 458.918 142.25 458.918 144.85C458.918 146.55 459.268 148 459.968 149.2C460.768 150.3 461.768 151.25 462.968 152.05C464.168 152.85 465.518 153.45 467.018 153.85C468.518 154.15 470.018 154.3 471.518 154.3C477.718 154.3 482.268 152.85 485.168 149.95C488.168 146.95 489.668 142.9 489.668 137.8V133.75ZM526.284 94H543.384V105.55H543.684C545.384 101.95 547.984 98.85 551.484 96.25C554.984 93.55 559.734 92.2 565.734 92.2C570.534 92.2 574.584 93 577.884 94.6C581.284 96.2 584.034 98.3 586.134 100.9C588.234 103.5 589.734 106.5 590.634 109.9C591.534 113.3 591.984 116.85 591.984 120.55V166H573.984V129.55C573.984 127.55 573.884 125.35 573.684 122.95C573.484 120.45 572.934 118.15 572.034 116.05C571.234 113.85 569.934 112.05 568.134 110.65C566.334 109.15 563.884 108.4 560.784 108.4C557.784 108.4 555.234 108.9 553.134 109.9C551.134 110.9 549.434 112.25 548.034 113.95C546.734 115.65 545.784 117.6 545.184 119.8C544.584 122 544.284 124.3 544.284 126.7V166H526.284V94Z" fill="#0C0C0C"/>
<path d="M190.871 71.9484C190.871 71.9484 187.718 69.1132 185.983 68.812C185.555 68.7377 184.834 68.8675 184.973 69.2799C186.573 74.0615 186.498 76.5502 186.498 76.5502C186.498 76.5502 193.607 82.0452 194.766 83.2758C195.924 84.5064 195.912 83.8085 195.761 83.3057C195.254 80.301 192.29 74.4822 190.871 71.9484Z" fill="#5932F3"/>
<path fill-rule="evenodd" clip-rule="evenodd" d="M143.584 106.973C144.177 109.36 145.759 110.659 147.692 110.659C149.625 110.659 151.472 108.906 151.472 106.973C151.472 106.218 151.302 105.607 151.137 105.012L151.137 105.012C151.09 104.841 151.043 104.672 151 104.501C148.469 94.3118 148.624 84.3071 150.145 74.001C151.399 65.501 158.99 57.4732 168.541 57.4732C173.064 57.4732 177.207 59.0961 180.421 61.7912C187.16 64.1665 192.541 71.407 192.541 78.4732C186.374 78.4732 179.582 74.8796 176.469 69.4732C174.736 67.6266 172.273 66.4732 169.541 66.4732C164.812 66.4732 160.889 69.9293 160.162 74.4537C158.641 84.7598 158.479 94.8118 161.01 105.001C161.521 106.573 162.041 108.845 162.427 111.36C167.092 141.796 137.32 166.473 106.041 166.473C104.837 166.473 103.641 166.437 102.455 166.366C98.178 166.11 94.0243 165.398 90.0412 164.278C96.5654 161.179 101.502 155.118 103.301 147.973C107.371 132.16 119.152 119.374 134.333 113.679C137.619 113.353 140.893 112.947 144.151 112.463C135.364 102.406 129.458 90.284 126.59 77.4602C125.636 73.1336 122.9 69.2217 118.721 66.9049C116.79 65.8344 114.697 65.4923 112.631 65.2721C104.461 64.5852 96.2934 63.3899 88.1749 61.6728C82.7753 56.8056 77.5543 51.6305 72.6044 46.0979C71.8549 45.26 72.8662 44.0376 73.8508 44.5802C77.6136 46.6541 81.4324 48.5995 85.3004 50.416C85.0851 50.1858 84.8694 49.9553 84.6534 49.7245L84.6481 49.7188C82.3904 47.3063 80.0993 44.8581 77.9567 42.3046C74.7658 38.5019 71.7405 34.6152 68.8803 30.6534C68.2311 29.7542 69.3363 28.6316 70.2686 29.2322C73.5574 31.351 76.9099 33.3562 80.2778 35.2834C72.2708 24.6305 65.4824 13.4061 59.8972 1.78614C59.376 0.701733 60.9 -0.178234 61.6339 0.77522C63.5167 3.22141 65.4644 5.63685 67.4693 8.02615C86.2224 30.3753 108.823 47.5913 133.49 59.5185C135.339 60.4643 137.17 61.5336 138.589 63.2251C141.661 66.8859 142.814 71.5184 142.153 75.8994C140.633 86.2055 141.053 96.784 143.584 106.973Z" fill="#5932F3"/>
<path fill-rule="evenodd" clip-rule="evenodd" d="M28.9833 48.5241C26.1565 47.2059 23.3704 45.84 20.6302 44.4187C19.5622 43.8647 18.5528 45.3063 19.4835 46.0688C29.4562 54.2396 40.3522 61.5435 52.1111 67.8144C48.2443 67.4912 44.3585 67.0906 40.4823 66.5603C39.3836 66.4099 38.8564 67.8945 39.8247 68.435C44.0913 70.8168 48.4757 73.0608 52.9748 75.1588C55.9958 76.5675 59.1069 77.818 62.1726 79.0504C62.4683 79.1692 62.7637 79.2879 63.0585 79.4066C58.7852 79.395 54.5021 79.2457 50.2153 78.9564C49.0936 78.8807 48.6937 80.416 49.7271 80.8586C57.373 84.1328 65.1377 86.8564 72.9328 89.1476C68.9462 89.4998 64.9428 89.7327 60.9278 89.8444C59.8185 89.8753 59.5523 91.413 60.6002 91.7783C62.0095 92.2695 63.4218 92.743 64.8366 93.1995C75.0415 91.1672 84.9858 88.3524 94.5989 84.8165C96.5642 84.1431 98.6053 83.5688 100.808 83.7228C105.575 84.0561 109.708 86.4453 112.401 89.9634C119.999 99.8281 129.804 107.969 141.204 113.391C142.641 113.111 144.073 112.814 145.5 112.499C136.033 103.079 129.11 91.0678 125.355 78.4753C124.101 74.2258 121.099 70.5142 116.768 68.4946C114.767 67.5615 112.656 67.3661 110.58 67.2906C83.1835 66.9054 55.4245 60.8538 28.9833 48.5241Z" fill="#5932F3"/>
<path d="M1.73505 105.282C4.81917 105.412 7.92151 105.473 11.0405 105.473C40.2152 105.473 67.9309 99.2259 92.9229 87.9968C94.8364 87.1879 96.8325 86.4727 99.0405 86.4727C103.819 86.4727 108.109 88.5677 111.041 91.8894C119.766 101.715 130.808 109.454 143.37 113.99C130.734 123.665 116.91 131.918 102.155 138.395C101.341 138.752 100.509 137.943 100.827 137.113C101.589 135.127 102.321 133.126 103.021 131.109C99.2983 132.966 95.5591 134.802 91.7253 136.459C90.9133 136.81 90.094 136 90.4157 135.176C91.2166 133.124 91.9845 131.056 92.719 128.973C86.7561 131.341 80.6894 133.465 74.4777 135.277C73.4201 135.586 72.7418 134.199 73.6119 133.523C76.0652 131.618 78.4729 129.657 80.8332 127.642C73.3612 129.27 65.7333 130.526 57.9752 131.312C56.8711 131.424 56.4625 129.918 57.4548 129.421C61.0464 127.623 64.5763 125.72 68.0405 123.716C60.0075 124.934 51.8192 125.747 43.506 126.011C42.3823 126.047 42.096 124.486 43.1445 124.081C47.1519 122.531 51.0969 120.856 54.9746 119.061C51.368 119.255 47.6954 119.473 44.0405 119.473C39.0763 119.473 34.1544 119.292 29.2809 118.936C28.1749 118.856 28.0253 117.287 29.0846 116.959C32.8218 115.802 36.5128 114.523 40.1539 113.181C26.8465 112.468 13.8846 110.453 1.39315 107.262C0.227414 106.964 0.53295 105.231 1.73505 105.282Z" fill="#5932F3"/>
</g>
<defs>
<clipPath id="clip0">
<rect width="593" height="169" fill="white"/>
</clipPath>
</defs>
</svg>
